<svg width="512" height="512" viewBox="0 0 512 512" fill="none" xmlns="http://www.w3.org/2000/svg">
  <rect width="512" height="512" rx="112" fill="#0F172A"/>
  <path d="M376 136C356.4 136 340.5 151.9 340.5 171.5C340.5 178.6 342.6 185.2 346.2 190.7L190.7 346.2C185.2 342.6 178.6 340.5 171.5 340.5C151.9 340.5 136 356.4 136 376C136 395.6 151.9 411.5 171.5 411.5C191.1 411.5 207 395.6 207 376C207 368.9 204.9 362.3 201.3 356.8L356.8 201.3C362.3 204.9 368.9 207 376 207C395.6 207 411.5 191.1 411.5 171.5C411.5 151.9 395.6 136 376 136Z" fill="#F2994A"/>
</svg>
